<svg width="68" height="56" viewBox="0 0 68 56" fill="none" xmlns="http://www.w3.org/2000/svg">
<path d="M58.0062 13.5006C57.4173 12.5434 56.5716 11.7474 55.5532 11.1919C54.5348 10.6363 53.3792 10.3405 52.2013 10.3338H44V4.00019C44 3.1603 43.6444 2.35481 43.0115 1.76091C42.3785 1.16702 41.5201 0.833374 40.625 0.833374H6.875C5.08479 0.833374 3.3679 1.50067 2.10203 2.68845C0.836158 3.87624 0.125 5.48722 0.125 7.16701V38.8352C0.126214 39.9458 0.438682 41.0367 1.03106 41.9983C1.62343 42.9599 2.47489 43.7584 3.5 44.3137C3.37916 47.2534 4.5078 50.1176 6.63763 52.2764C8.76745 54.4352 11.724 55.7117 14.8569 55.8251C17.9897 55.9385 21.0423 54.8795 23.343 52.881C25.6437 50.8826 27.0042 48.1084 27.125 45.1688H37.5875C37.9607 47.8185 39.3474 50.2506 41.4894 52.0123C43.6315 53.7741 46.3828 54.7454 49.2312 54.7454C52.0797 54.7454 54.831 53.7741 56.9731 52.0123C59.1151 50.2506 60.5018 47.8185 60.875 45.1688C62.6652 45.1688 64.3821 44.5015 65.648 43.3137C66.9138 42.1259 67.625 40.5149 67.625 38.8352V29.3347C67.6197 28.757 67.457 28.1901 67.1525 27.688L58.0062 13.5006ZM44 16.6675H52.2013L58.2762 26.1679H44V16.6675ZM15.3125 48.3356C14.3112 48.3356 13.3324 48.057 12.4999 47.535C11.6674 47.0131 11.0185 46.2712 10.6354 45.4032C10.2522 44.5352 10.1519 43.5801 10.3473 42.6587C10.5426 41.7372 11.0248 40.8908 11.7328 40.2265C12.4408 39.5621 13.3428 39.1097 14.3249 38.9264C15.3069 38.7431 16.3248 38.8372 17.2498 39.1968C18.1749 39.5563 18.9655 40.1651 19.5218 40.9463C20.0781 41.7275 20.375 42.6459 20.375 43.5854C20.375 44.8452 19.8416 46.0535 18.8922 46.9443C17.9428 47.8351 16.6552 48.3356 15.3125 48.3356ZM49.0625 48.3356C48.0612 48.3356 47.0825 48.057 46.2499 47.535C45.4174 47.0131 44.7685 46.2712 44.3854 45.4032C44.0022 44.5352 43.9019 43.5801 44.0973 42.6587C44.2926 41.7372 44.7748 40.8908 45.4828 40.2265C46.1908 39.5621 47.0928 39.1097 48.0749 38.9264C49.0569 38.7431 50.0748 38.8372 50.9998 39.1968C51.9249 39.5563 52.7155 40.1651 53.2718 40.9463C53.8281 41.7275 54.125 42.6459 54.125 43.5854C54.125 44.8452 53.5916 46.0535 52.6422 46.9443C51.6928 47.8351 50.4052 48.3356 49.0625 48.3356Z" fill="#F24E1E"/>
</svg>
