<svg width="68" height="68" viewBox="0 0 68 68" fill="none" xmlns="http://www.w3.org/2000/svg">
<path d="M65.625 37.9688H56.25V50.625L52.5 47.8169L48.75 50.625V37.9688H39.375C38.3437 37.9688 37.5 38.918 37.5 40.0781V65.3906C37.5 66.5508 38.3437 67.5 39.375 67.5H65.625C66.6563 67.5 67.5 66.5508 67.5 65.3906V40.0781C67.5 38.918 66.6563 37.9688 65.625 37.9688ZM20.625 29.5312H46.875C47.9063 29.5312 48.75 28.582 48.75 27.4219V2.10938C48.75 0.949219 47.9063 0 46.875 0H37.5V12.6562L33.75 9.84814L30 12.6562V0H20.625C19.5937 0 18.75 0.949219 18.75 2.10938V27.4219C18.75 28.582 19.5937 29.5312 20.625 29.5312ZM28.125 37.9688H18.75V50.625L15 47.8169L11.25 50.625V37.9688H1.875C0.84375 37.9688 0 38.918 0 40.0781V65.3906C0 66.5508 0.84375 67.5 1.875 67.5H28.125C29.1563 67.5 30 66.5508 30 65.3906V40.0781C30 38.918 29.1563 37.9688 28.125 37.9688Z" fill="#F24E1E"/>
</svg>
