<svg width="69" height="51" viewBox="0 0 69 51" fill="none" xmlns="http://www.w3.org/2000/svg">
<path d="M53.2102 18.0036C49.4175 11.9845 44.2019 6.89585 37.9805 3.14469C35.1769 1.44867 31.981 0.433514 28.6718 0.187841C25.3626 -0.0578328 22.0407 0.473448 18.9961 1.7353C16.333 2.93429 14.0157 4.73401 12.2444 6.97905C10.473 9.22408 9.30075 11.8469 8.82891 14.6211C8.66016 15.6077 8.5125 16.6345 8.38594 17.4399H6.27656C5.55381 17.4319 4.83657 17.5609 4.16642 17.8194C3.49626 18.0778 2.8865 18.4607 2.37247 18.9457C1.85843 19.4308 1.45034 20.0083 1.17184 20.645C0.893333 21.2816 0.749952 21.9647 0.75 22.6546V39.8693C0.75 40.3285 0.941124 40.7689 1.28133 41.0936C1.62153 41.4184 2.08294 41.6008 2.56406 41.6008H6.21328V40.8156C6.20789 38.9513 6.67262 37.1132 7.56822 35.4564C8.46382 33.7997 9.76398 32.373 11.3589 31.2969C12.9538 30.2208 14.7966 29.5269 16.7316 29.2737C18.6667 29.0206 20.6371 29.2157 22.4766 29.8425L20.3672 31.8559C18.6827 31.5602 16.9461 31.6991 15.3367 32.2583C13.7273 32.8176 12.3035 33.7769 11.2125 35.0371C10.65 35.5758 10.1991 36.2111 9.88359 36.9096C9.23454 38.1084 8.87425 39.4305 8.82903 40.7793C8.78381 42.128 9.05481 43.4694 9.62223 44.7054C10.1897 45.9414 11.0392 47.0408 12.1087 47.9234C13.1783 48.8059 14.4408 49.4492 15.8042 49.8063C17.1676 50.1635 18.5973 50.2254 19.989 49.9876C21.3806 49.7498 22.6991 49.2183 23.848 48.4319C24.9969 47.6455 25.9472 46.6241 26.6296 45.4422C27.312 44.2604 27.7092 42.9479 27.7922 41.6008H39.3516V40.8156C39.3474 38.9537 39.8121 37.1182 40.7065 35.4636C41.601 33.809 42.899 32.3838 44.4911 31.3082C46.0833 30.2326 47.9229 29.5379 49.8551 29.2829C51.7874 29.0278 53.7555 29.2197 55.5938 29.8425L53.4844 31.8559C51.7999 31.5602 50.0633 31.6991 48.4539 32.2583C46.8445 32.8176 45.4207 33.7769 44.3297 35.0371C43.7672 35.5758 43.3163 36.2111 43.0008 36.9096C42.3606 38.1082 42.0081 39.428 41.969 40.7729C41.9298 42.1179 42.205 43.4543 42.7745 44.685C43.344 45.9158 44.1935 47.0101 45.2614 47.8883C46.3293 48.7666 47.5887 49.4068 48.9481 49.7625C50.3075 50.1182 51.7329 50.1804 53.1207 49.9447C54.5085 49.7089 55.8239 49.1811 56.9713 48.3996C58.1187 47.618 59.0693 46.6024 59.7541 45.4264C60.439 44.2504 60.8408 42.9435 60.9305 41.6008H66.4359C66.9171 41.6008 67.3785 41.4184 67.7187 41.0936C68.0589 40.7689 68.25 40.3285 68.25 39.8693V36.2854C68.234 32.0746 66.7458 27.9895 64.0213 24.6777C61.2968 21.3659 57.492 19.0171 53.2102 18.0036ZM21.8438 17.4399H13.4062C13.4062 16.7352 13.6172 16.0104 13.7437 15.2855C14.0981 13.0844 15.0333 11.0054 16.4614 9.24431C17.8895 7.4832 19.7634 6.09781 21.907 5.2185L21.8438 17.4399ZM18.3844 46.3524C17.3414 46.3524 16.3218 46.0572 15.4546 45.5041C14.5874 44.9511 13.9115 44.1649 13.5124 43.2452C13.1132 42.3254 13.0088 41.3133 13.2123 40.3369C13.4157 39.3605 13.918 38.4636 14.6555 37.7597C15.393 37.0557 16.3326 36.5763 17.3556 36.3821C18.3785 36.1879 19.4388 36.2876 20.4024 36.6685C21.366 37.0495 22.1896 37.6947 22.7691 38.5224C23.3485 39.3502 23.6578 40.3234 23.6578 41.3189C23.6578 42.6539 23.1022 43.9342 22.1133 44.8782C21.1243 45.8221 19.783 46.3524 18.3844 46.3524ZM36.6094 27.5069H30.2812V23.4801H36.6094V27.5069ZM23.9531 17.4399V4.29233C27.9165 3.77739 31.9441 4.59609 35.3437 6.60775C40.015 9.41054 44.0351 13.097 47.1562 17.4399H23.9531ZM51.5016 46.3524C50.4586 46.3524 49.439 46.0572 48.5718 45.5041C47.7046 44.9511 47.0287 44.1649 46.6295 43.2452C46.2304 42.3254 46.126 41.3133 46.3295 40.3369C46.5329 39.3605 47.0352 38.4636 47.7727 37.7597C48.5102 37.0557 49.4498 36.5763 50.4728 36.3821C51.4957 36.1879 52.556 36.2876 53.5196 36.6685C54.4832 37.0495 55.3068 37.6947 55.8863 38.5224C56.4657 39.3502 56.775 40.3234 56.775 41.3189C56.775 42.6539 56.2194 43.9342 55.2304 44.8782C54.2415 45.8221 52.9002 46.3524 51.5016 46.3524Z" fill="#F24E1E"/>
</svg>
