<svg width="69" height="68" viewBox="0 0 69 68" fill="none" xmlns="http://www.w3.org/2000/svg">
<path d="M58.4821 53.0357C61.1449 53.0357 63.3036 50.8771 63.3036 48.2143C63.3036 45.5514 61.1449 43.3928 58.4821 43.3928C55.8193 43.3928 53.6607 45.5514 53.6607 48.2143C53.6607 50.8771 55.8193 53.0357 58.4821 53.0357Z" fill="#F24E1E"/>
<path d="M44.0178 53.0357C46.6806 53.0357 48.8393 50.8771 48.8393 48.2143C48.8393 45.5514 46.6806 43.3928 44.0178 43.3928C41.355 43.3928 39.1964 45.5514 39.1964 48.2143C39.1964 50.8771 41.355 53.0357 44.0178 53.0357Z" fill="#F24E1E"/>
<path d="M29.5535 14.4643C32.2163 14.4643 34.375 12.3056 34.375 9.64284C34.375 6.98004 32.2163 4.82141 29.5535 4.82141C26.8907 4.82141 24.7321 6.98004 24.7321 9.64284C24.7321 12.3056 26.8907 14.4643 29.5535 14.4643Z" fill="#F24E1E"/>
<path d="M15.0893 14.4643C17.7521 14.4643 19.9107 12.3056 19.9107 9.64284C19.9107 6.98004 17.7521 4.82141 15.0893 4.82141C12.4265 4.82141 10.2679 6.98004 10.2679 9.64284C10.2679 12.3056 12.4265 14.4643 15.0893 14.4643Z" fill="#F24E1E"/>
<path d="M15.6534 53.0357C20.2079 53.0393 24.6478 51.6079 28.3426 48.9447C32.0374 46.2816 34.7993 42.5222 36.2361 38.2002L41.9085 21.1805C43.0255 17.8186 45.1736 14.8943 48.0477 12.823C50.9217 10.7518 54.3754 9.63903 57.918 9.64286H68.125V4.82143H57.918C53.3635 4.81786 48.9236 6.24927 45.2288 8.9124C41.534 11.5755 38.7721 15.335 37.3354 19.657L31.6629 36.6766C30.5459 40.0385 28.3978 42.9629 25.5238 45.0341C22.6497 47.1054 19.196 48.2181 15.6534 48.2143H5.44643V0H0.625V62.6786C0.625 65.3376 2.78741 67.5 5.44643 67.5H68.125V62.6786H5.44643V53.0357H15.6534Z" fill="#F24E1E"/>
</svg>
