<svg width="68" height="68" viewBox="0 0 68 68" fill="none" xmlns="http://www.w3.org/2000/svg">
<path d="M27.0359 0C21.7459 0 17.4581 4.29216 17.4581 9.58736C17.4581 12.2058 18.5057 14.5805 20.2054 16.3108H0.500056V32.2897C2.25641 30.2586 4.85319 28.9706 7.74743 28.9706C13.0374 28.9706 17.3253 33.2627 17.3253 38.5579C17.3253 43.8531 13.0374 48.1451 7.74737 48.1451C4.85319 48.1451 2.25641 46.8571 0.5 44.8261V67.5H21.2C19.0111 65.7429 17.6095 63.045 17.6095 60.0178C17.6095 54.7225 21.8974 50.4305 27.1874 50.4305C32.4774 50.4305 36.7652 54.7227 36.7652 60.0178C36.7652 63.0449 35.3636 65.7427 33.1747 67.5H51.6389V47.4719C53.373 49.2126 55.7722 50.2883 58.4221 50.2883C63.7122 50.2883 68 45.9962 68 40.701C68 35.4057 63.7121 31.1137 58.4221 31.1137C55.7722 31.1137 53.373 32.1895 51.6389 33.9302V16.3108H33.8664C35.5668 14.5803 36.6139 12.2061 36.6139 9.58731C36.6139 4.2921 32.3259 0 27.0359 0Z" fill="#F24E1E"/>
</svg>
