<svg width="39" height="40" viewBox="0 0 39 40" fill="none" xmlns="http://www.w3.org/2000/svg">
<path d="M13.793 17.0043C15.8264 20.5387 18.7842 23.4658 22.3557 25.4781L24.271 22.8236C24.579 22.3968 25.0344 22.0965 25.5511 21.9795C26.0677 21.8626 26.6098 21.9371 27.0747 22.189C30.1385 23.8476 33.5229 24.8444 37.0045 25.1136C37.5479 25.1562 38.055 25.3999 38.4249 25.7961C38.7947 26.1923 39.0001 26.712 39 27.2513V36.8186C39.0001 37.3495 38.8012 37.8616 38.4418 38.2557C38.0824 38.6498 37.588 38.8979 37.0543 38.9521C35.906 39.0693 34.749 39.1279 33.5833 39.1279C15.0367 39.1279 0 24.2474 0 5.89325C0 4.73968 0.0592223 3.59469 0.177667 2.45828C0.232385 1.93017 0.483133 1.44092 0.881378 1.08523C1.27962 0.729536 1.79705 0.5327 2.3335 0.532814H12.0012C12.5462 0.532746 13.0713 0.735978 13.4716 1.10199C13.872 1.46799 14.1183 1.96989 14.1613 2.5076C14.4334 5.9531 15.4407 9.30234 17.1167 12.3343C17.3712 12.7944 17.4465 13.3308 17.3283 13.8421C17.2101 14.3534 16.9066 14.8041 16.4753 15.1089L13.793 17.0043ZM8.32867 15.5956L12.4453 12.686C11.2767 10.1905 10.4763 7.54184 10.0685 4.82116H4.355C4.34056 5.17852 4.33333 5.53588 4.33333 5.89325C4.33333 21.8802 17.4287 34.8396 33.5833 34.8396C33.9444 34.8396 34.3056 34.8324 34.6667 34.8181V29.1639C31.9174 28.7604 29.241 27.9682 26.7193 26.8118L23.7792 30.8857C22.5956 30.4302 21.4459 29.8928 20.3385 29.2776L20.2128 29.2068C15.9634 26.813 12.4441 23.3303 10.0252 19.1249L9.95367 19.0006C9.33136 17.905 8.78833 16.7672 8.32867 15.5956Z" fill="#F24E1E"/>
</svg>
